<?xml version="1.0" encoding="UTF-8" standalone="no"?>
<!-- Created with Inkscape (http://www.inkscape.org/) -->

<svg
   width="212.13202mm"
   height="212.13202mm"
   viewBox="0 0 212.13202 212.13202"
   version="1.1"
   id="svg1"
   xml:space="preserve"
   inkscape:export-filename="Sikkel en Harp.png"
   inkscape:export-xdpi="119.73676"
   inkscape:export-ydpi="119.73676"
   inkscape:version="1.3.2 (091e20ef0f, 2023-11-25)"
   sodipodi:docname="Sikkel en Harp.svg"
   xmlns:inkscape="http://www.inkscape.org/namespaces/inkscape"
   xmlns:sodipodi="http://sodipodi.sourceforge.net/DTD/sodipodi-0.dtd"
   xmlns="http://www.w3.org/2000/svg"
   xmlns:svg="http://www.w3.org/2000/svg"><sodipodi:namedview
     id="namedview1"
     pagecolor="#ffffff"
     bordercolor="#000000"
     borderopacity="0.25"
     inkscape:showpageshadow="2"
     inkscape:pageopacity="0.0"
     inkscape:pagecheckerboard="0"
     inkscape:deskcolor="#d1d1d1"
     inkscape:document-units="mm"
     inkscape:export-bgcolor="#b91d1dff"
     inkscape:zoom="0.5"
     inkscape:cx="271"
     inkscape:cy="513"
     inkscape:window-width="1844"
     inkscape:window-height="1011"
     inkscape:window-x="76"
     inkscape:window-y="32"
     inkscape:window-maximized="1"
     inkscape:current-layer="layer1" /><defs
     id="defs1" /><g
     inkscape:label="Layer 1"
     inkscape:groupmode="layer"
     id="layer1"
     transform="translate(-551.48087,41.32325)"><g
       id="g2"
       transform="matrix(1.2205,0,0,1.2205,-151.90539,-30.899299)"
       style="fill:#ffffff;fill-opacity:1"><g
         id="g1"
         style="fill:#ffffff;fill-opacity:1;stroke:#000000;stroke-width:0.463146;stroke-dasharray:none;stroke-opacity:1"
         transform="matrix(1.0775692,0,0,1.0775692,244.00276,0.33012877)"><path
           style="fill:#ffffff;fill-opacity:1;stroke:#000000;stroke-width:0.463146;stroke-dasharray:none;stroke-opacity:1"
           d="m 427.73379,102.93573 c -0.45608,-0.35954 -1.02547,-1.14414 -1.2653,-1.74355 l -0.43607,-1.08985 1.69967,-1.899078 c 9.08863,-10.154948 14.44365,-22.567818 16.47748,-38.194605 0.63358,-4.868086 0.61918,-15.592657 -0.0232,-17.267507 -1.11803,-2.915049 -0.98012,-5.020765 0.398,-6.076917 1.99536,-1.529191 1.88332,-0.695681 1.07599,-8.004763 -0.39737,-3.597581 -0.78797,-6.606528 -0.86799,-6.68655 -0.08,-0.08002 -0.5931,0.619866 -1.14016,1.555306 -5.4584,9.333435 -14.74955,12.721231 -29.1121,10.615034 -1.60073,-0.234739 -5.58933,-1.071556 -8.86354,-1.859594 -6.71443,-1.616025 -10.13247,-2.111825 -12.8323,-1.861376 -3.54739,0.329075 -5.9823,1.285691 -8.00097,3.143385 -2.20128,2.025739 -3.33102,4.551044 -3.65997,8.181116 l -0.18381,2.0285 4.6166,9.206367 c 4.70587,9.384394 7.26067,15.012631 10.66447,23.493866 4.36415,10.874145 8.49828,23.344917 8.17111,24.648486 -0.0928,0.36974 -0.57351,1.07705 -1.06825,1.57178 l -0.89952,0.89953 h 2.62324 2.62324 l 0.2998,-1.19063 0.29981,-1.19062 h 7.13613 7.13613 l 0.2998,1.19062 0.29981,1.19063 2.68057,-0.003 2.68057,-0.003 z m -2.95844,-23.500037 c 2.31426,-8.031015 5.3164,-18.470593 6.67143,-23.199062 1.54793,-5.40165 2.52316,-8.401174 2.62372,-8.069792 0.088,0.290084 0.35706,2.253832 0.59785,4.363884 0.52724,4.62018 0.39312,13.015464 -0.27053,16.933333 -1.63683,9.663161 -5.7121,18.576567 -11.29914,24.713422 l -1.66328,1.826963 -0.43389,-0.983452 -0.4339,-0.983452 z m -6.79072,8.564713 c -0.15366,-0.484131 1.41174,-6.075689 10.9973,-39.282107 1.00435,-3.479282 1.87177,-6.371639 1.92759,-6.427461 0.0558,-0.05582 0.51019,-0.167816 1.0097,-0.248876 0.89956,-0.145978 0.91096,-0.135353 1.1974,1.116408 0.27885,1.218581 0.1633,1.699858 -3.23014,13.454009 -1.93563,6.70462 -4.97608,17.250375 -6.75655,23.43501 -1.78047,6.184636 -3.2984,11.351382 -3.37319,11.481659 -0.12457,0.216997 -1.37105,-2.264995 -1.77211,-3.528642 z m -2.23304,-4.470335 -0.89718,-1.854565 5.08603,-17.681245 c 2.79731,-9.724686 5.31637,-18.468545 5.59791,-19.430799 l 0.51188,-1.749552 1.49223,-0.175383 c 0.82073,-0.09646 1.54155,-0.126065 1.60183,-0.06579 0.15285,0.152857 -12.19146,42.995234 -12.35922,42.894082 -0.075,-0.0452 -0.54003,-0.916738 -1.03348,-1.936748 z m -0.39895,-19.676443 c 1.9831,-6.882442 4.17424,-14.478061 4.8692,-16.879155 l 1.26356,-4.365625 1.42215,0.09036 c 0.78218,0.0497 1.46743,0.134665 1.52277,0.188815 0.0553,0.05415 -0.26881,1.382705 -0.72034,2.952347 -7.74498,26.923699 -9.59706,33.341546 -9.71487,33.663942 -0.0889,0.24341 -0.52405,-0.258419 -1.19402,-1.377095 L 411.747,76.367156 Z m -5.80825,8.83705 -0.92565,-1.523789 4.21645,-14.65284 c 2.31905,-8.059062 4.25907,-14.69545 4.31114,-14.747529 0.15389,-0.153883 2.81679,0.473033 2.82813,0.665815 0.031,0.52638 -9.16129,31.994197 -9.31776,31.897488 -0.10266,-0.06345 -0.6032,-0.801062 -1.11231,-1.639145 z m -3.16304,-4.806717 -1.01503,-1.575466 3.75489,-13.040448 c 2.06519,-7.172247 3.77914,-13.067334 3.80879,-13.100193 0.0297,-0.03286 0.64218,0.166298 1.36118,0.442572 0.95172,0.365699 1.29487,0.63381 1.26169,0.985786 -0.0718,0.761768 -7.87649,27.862192 -8.02421,27.862732 -0.0728,2.66e-4 -0.58905,-0.708476 -1.14731,-1.574983 z m -3.32832,-4.74003 -1.01437,-1.359561 3.29911,-11.439844 c 1.8145,-6.291915 3.344,-11.48604 3.39887,-11.5425 0.15833,-0.16292 2.49423,0.546901 2.65482,0.80673 0.10718,0.173425 -6.09194,22.378096 -6.92367,24.79994 -0.15066,0.438696 -0.13008,0.457098 -1.41476,-1.264765 z m -3.2731,-4.256336 c -0.54039,-0.723824 -0.98252,-1.45056 -0.98252,-1.61497 0,-0.364692 5.50618,-19.596695 5.65248,-19.742994 0.16204,-0.162045 2.54196,0.487182 2.69528,0.735257 0.15258,0.246873 -6.01681,21.932163 -6.24076,21.936196 -0.0781,0.0014 -0.5841,-0.589664 -1.12448,-1.313489 z m -3.42992,-4.185665 c -0.5457,-0.683649 -0.99219,-1.394858 -0.99219,-1.580464 0,-0.260957 4.16944,-15.035118 4.61667,-16.358877 0.0701,-0.207533 0.52387,-0.212814 1.59553,-0.01857 1.15643,0.209611 1.47246,0.366074 1.38739,0.686885 -0.86396,3.258047 -5.38542,18.53596 -5.48292,18.526652 -0.0728,-0.0069 -0.57877,-0.571978 -1.12448,-1.255628 z m -3.55167,-3.988813 -1.10427,-1.234599 1.89802,-6.674509 1.89803,-6.67451 1.52135,-0.0015 c 0.83675,-8.09e-4 1.52584,0.08782 1.53132,0.196966 0.02,0.397942 -4.37951,15.666831 -4.50788,15.645108 -0.0728,-0.01231 -0.62922,-0.577956 -1.23657,-1.256985 z m -5.87149,-7.475756 c -0.68154,-3.869137 1.42108,-6.424573 5.7597,-7.000111 1.30092,-0.172574 1.39683,-0.148637 1.25923,0.314274 -0.0819,0.275591 -0.81606,2.822793 -1.63143,5.660449 -0.81536,2.837656 -1.54031,5.329959 -1.611,5.53845 -0.0889,0.262158 -0.64908,-0.136855 -1.8163,-1.293702 -1.5347,-1.521054 -1.71249,-1.813052 -1.9602,-3.21936 z"
           id="path1"
           sodipodi:nodetypes="cscsssssssssssscssssccccccccccccsssssscccssssssssssccsscsssscsscssssscsscsssssscssssssscsssssssssssssssssssccccsssscsssssss" /><path
           id="_31901784"
           class="fil2"
           d="m 432.21073,135.58347 -18.64024,6.44221 -2.40439,-17.5772 C 367.56535,134.74886 336.07833,107.01734 329.91515,86.25377 312.7614,28.463288 378.64436,-24.943934 429.1353,20.302376 c -48.30881,-29.5783131 -100.15684,9.935552 -81.82263,58.92349 9.17612,24.518064 37.81215,38.136654 69.95723,26.647874 z"
           inkscape:connector-curvature="0"
           style="fill:#ffffff;fill-opacity:1;fill-rule:evenodd;stroke:#000000;stroke-width:0.463146;stroke-linejoin:miter;stroke-dasharray:none;stroke-opacity:1"
           sodipodi:nodetypes="cccscscc" /></g></g></g></svg>
